<svg width="30" height="30" viewBox="0 0 30 30" fill="none" xmlns="http://www.w3.org/2000/svg">
<path d="M14.4023 0.0234337C14.3133 0.0351524 14.0648 0.0539017 13.8516 0.0703087C11.1023 0.264839 8.39766 1.26797 6.11953 2.93437C5.89922 3.09609 5.43984 3.46406 5.17969 3.68906C4.86328 3.96093 3.96094 4.86328 3.68906 5.17968C2.78672 6.22968 2.13047 7.22578 1.53281 8.44921C0.700781 10.1555 0.201563 11.993 0.0703125 13.8398C0.05625 14.0461 0.0351563 14.3109 0.0210938 14.4305C-0.00703125 14.7047 -0.00703125 15.2953 0.0210938 15.5695C0.0351563 15.6891 0.05625 15.9539 0.0703125 16.1602C0.264844 18.8977 1.27031 21.607 2.93438 23.8805C3.09609 24.1008 3.46406 24.5602 3.68906 24.8203C3.96094 25.1367 4.86328 26.0391 5.17969 26.3109C6.22969 27.2133 7.22578 27.8695 8.44922 28.4672C10.1555 29.2992 11.993 29.7984 13.8398 29.9297C14.0461 29.9437 14.3109 29.9648 14.4305 29.9789C14.7047 30.007 15.2953 30.007 15.5695 29.9789C15.6891 29.9648 15.9539 29.9437 16.1602 29.9297C18.8977 29.7352 21.607 28.7297 23.8805 27.0656C24.1008 26.9039 24.5602 26.5359 24.8203 26.3109C25.1367 26.0391 26.0391 25.1367 26.3109 24.8203C27.2133 23.7703 27.8695 22.7742 28.4672 21.5508C29.2992 19.8445 29.7984 18.007 29.9297 16.1602C29.9438 15.9539 29.9648 15.6891 29.9789 15.5695C30.007 15.2953 30.007 14.7047 29.9789 14.4305C29.9648 14.3109 29.9438 14.0461 29.9297 13.8398C29.7352 11.1023 28.7297 8.39297 27.0656 6.11953C26.9039 5.89922 26.5359 5.43984 26.3109 5.17968C26.0391 4.86328 25.1367 3.96093 24.8203 3.68906C23.7703 2.78671 22.7742 2.13046 21.5508 1.53281C19.8445 0.700777 18.007 0.201559 16.1602 0.0703087C15.9539 0.0562458 15.6891 0.0351524 15.5695 0.0210896C15.3211 -0.00234795 14.6414 -0.00234795 14.4023 0.0234337ZM16.1953 3.31406C17.0695 3.39609 17.8078 3.55312 18.6445 3.83203C21.3469 4.73437 23.7281 6.70312 25.1813 9.22968C25.7555 10.2305 26.1188 11.1516 26.4141 12.3633C26.6906 13.4977 26.7656 14.0672 26.7656 15.0703C26.7656 15.9141 26.6813 16.6594 26.4914 17.4727C25.7297 20.7703 23.4938 23.7141 20.5195 25.3406C20.0438 25.6008 19.5633 25.8117 18.832 26.0859C17.6391 26.5289 16.7953 26.707 15.5977 26.7656C13.1367 26.8852 10.5328 26.1 8.33203 24.5766C7.23281 23.8148 6.26016 22.875 5.47969 21.8203C4.8375 20.9508 4.42266 20.1797 3.96094 18.9984C3.57422 18.007 3.39141 17.3133 3.26484 16.3477C3.21094 15.9328 3.20391 14.4891 3.25313 14.0742C3.4875 12.1148 4.13906 10.3336 5.21953 8.68359C6.30703 7.02656 7.69453 5.69765 9.33984 4.73672C10.7531 3.91171 12.307 3.4289 13.875 3.32812C14.6836 3.27656 15.7172 3.27187 16.1953 3.31406Z" fill="white"/>
<path d="M17.536 11.0578L13.0969 13.2773L10.8703 17.7281C9.64691 20.175 8.65316 22.1836 8.66019 22.1906C8.66722 22.2 10.6758 21.2039 13.1204 19.9805L17.5664 17.7539L19.8 13.2937C21.0258 10.8422 22.0172 8.83592 22.0032 8.83826C21.9868 8.83826 19.9758 9.8367 17.536 11.0578ZM14.6414 16.2C15.4196 16.9781 16.0547 17.6273 16.0547 17.6414C16.0547 17.6789 10.3688 20.5242 10.343 20.5008C10.3196 20.475 13.1649 14.789 13.2 14.789C13.2164 14.789 13.8657 15.4242 14.6414 16.2Z" fill="white"/>
</svg>
